<svg t="1738770802866" class="icon" viewBox="0 0 1024 1024" version="1.1" xmlns="http://www.w3.org/2000/svg" p-id="1467" width="200" height="200"><path d="M929.8 353.9c-5.5-14.5-21.6-21.8-36.1-16.4-14.5 5.5-21.8 21.6-16.3 36.1 36.8 97.8 33.4 204-9.6 299.2-43.2 95.2-120.7 167.9-218.5 204.8-97.8 36.8-204 33.4-299.2-9.6-33.6-15.2-64.8-35.2-92.7-59.1 22.4 0.6 46.9-0.5 72.1-5 15.2-2.7 25.4-17.3 22.7-32.5-2.7-15.2-17.3-25.4-32.5-22.7-50.8 9-99.2 2.1-126.5-3.8-9.2-4.2-20.4-3.4-29 3.3-3.4 2.6-5.9 5.9-7.7 9.5-0.2 0.4-0.3 0.8-0.5 1.2-0.6 1.3-1.1 2.5-1.4 3.9-1.6 5.3-1.9 11-0.2 16.5 7.2 23.1 24.2 92.3 17.4 134.7-2.5 15.3 7.9 29.7 23.2 32.2 1.5 0.2 3 0.4 4.5 0.4 13.5 0 25.4-9.8 27.6-23.6 3.3-20.5 2.6-43.8 0.2-66.2 30.3 24.9 63.9 46.1 99.8 62.3 58.8 26.6 121.4 40 184.1 40 53.2 0 106.6-9.6 158-29C780.9 887.9 869.5 804.8 918.8 696c49.2-108.8 53.1-230.3 11-342.1zM155 350.5c88.9-196.5 321.1-284 517.5-195.1 32.8 14.8 62.6 33.7 89.6 56.2-22.4-0.6-46.8 0.5-72 5-15.2 2.7-25.4 17.2-22.7 32.5 2.7 15.3 17.3 25.4 32.5 22.7 54.5-9.6 106.3-1 132.3 5.1 0.4 0.1 0.8 0.1 1.2 0.1 1.3 0.3 2.6 0.4 4 0.5 0.4 0 0.8 0.1 1.1 0.1 0.3 0 0.6-0.1 0.9-0.1 1.1 0 2.3-0.2 3.4-0.3 0.7-0.1 1.4-0.2 2.1-0.4 1.1-0.3 2.2-0.6 3.2-1 0.7-0.3 1.4-0.5 2.1-0.8 1-0.4 1.9-1 2.8-1.6 0.7-0.4 1.5-0.9 2.2-1.4 0.2-0.2 0.5-0.3 0.7-0.5 0.6-0.5 1.1-1 1.6-1.6 0.5-0.4 1-0.8 1.4-1.2 0.1-0.2 0.2-0.4 0.4-0.5 1.5-1.7 2.8-3.5 3.8-5.4l0.3-0.6c0.9-1.7 1.5-3.6 2-5.5 0.2-0.6 0.3-1.3 0.4-1.9 0.3-1.6 0.4-3.3 0.5-5v-1.6c-0.1-2.2-0.5-4.4-1.1-6.5v-0.3c-7.2-23-24.3-92.2-17.4-134.7 2.5-15.3-7.9-29.7-23.2-32.2-15.2-2.5-29.7 7.9-32.2 23.2-3.3 20.5-2.6 43.8-0.2 66.3-29.3-23.7-61.6-43.7-96.7-59.6C471 2.6 205.6 102.7 104 327.3 54.7 436.2 50.8 557.7 93 669.5c4.2 11.2 14.9 18.2 26.2 18.2 3.3 0 6.6-0.6 9.9-1.8 14.5-5.5 21.8-21.6 16.3-36.1-36.8-97.9-33.4-204.2 9.6-299.3z" fill="#515151" p-id="1468"></path><path d="M417.4 835.5c30.8 9 62.1 13.3 93.1 13.3 129.5 0 252.6-75.5 308.1-198.1 37.1-82 40-173.6 8.3-257.9-3.7-9.7-14.4-14.5-24.1-10.9-9.7 3.6-14.5 14.4-10.9 24.1 28.2 74.9 25.6 156.4-7.4 229.3C723.3 770.4 570 841 427.8 799.6c-9.9-2.9-20.3 2.8-23.2 12.7-2.8 9.9 2.9 20.3 12.8 23.2zM589.6 222.3c10 2.7 20.2-3.2 22.9-13.1 2.7-10-3.2-20.2-13.1-22.9-160.4-43.7-326.6 34.8-395.2 186.4-37.1 82.1-40.1 173.7-8.2 257.9 2.8 7.5 9.9 12.1 17.5 12.1 2.2 0 4.4-0.4 6.6-1.2 9.6-3.6 14.5-14.5 10.9-24.1-28.3-74.9-25.7-156.4 7.3-229.3 61-134.8 208.8-204.5 351.3-165.8z" fill="#515151" p-id="1469"></path></svg>