<svg xmlns="http://www.w3.org/2000/svg" xmlns:xlink="http://www.w3.org/1999/xlink" width="27.0001220703125" height="27.000091552734375" viewBox="0 0 27.0001220703125 27.000091552734375" fill="none">
    <path d="M26.6196 24.8328L21.5928 19.9124C21.6524 19.8454 21.7112 19.7778 21.7693 19.7095C21.8273 19.6412 21.8846 19.5722 21.941 19.5026C21.9975 19.433 22.0532 19.3627 22.1081 19.2918C22.1629 19.221 22.217 19.1494 22.2703 19.0773C22.3235 19.0052 22.3759 18.9325 22.4275 18.8592C22.4791 18.7859 22.5299 18.712 22.5798 18.6375C22.6297 18.5631 22.6788 18.4881 22.727 18.4125C22.7752 18.3369 22.8226 18.2608 22.8691 18.1841C22.9155 18.1075 22.9611 18.0303 23.0059 17.9526C23.0506 17.8749 23.0944 17.7967 23.1374 17.7181C23.1803 17.6394 23.2223 17.5602 23.2635 17.4805C23.3047 17.4009 23.3449 17.3208 23.3842 17.2402C23.4235 17.1597 23.4619 17.0787 23.4994 16.9972C23.5369 16.9158 23.5734 16.8339 23.609 16.7517C23.6447 16.6694 23.6794 16.5868 23.7131 16.5037C23.7468 16.4206 23.7796 16.3372 23.8115 16.2534C23.8433 16.1696 23.8742 16.0855 23.9041 16.0009C23.934 15.9165 23.963 15.8316 23.991 15.7464C24.019 15.6613 24.046 15.5758 24.0721 15.49C24.0981 15.4043 24.1232 15.3182 24.1473 15.2319C24.1714 15.1455 24.1945 15.0589 24.2166 14.972C24.2387 14.8851 24.2599 14.798 24.28 14.7107C24.3002 14.6233 24.3193 14.5357 24.3375 14.4479C24.3556 14.3602 24.3728 14.2722 24.3889 14.184C24.4051 14.0958 24.4202 14.0075 24.4344 13.9189C24.4485 13.8304 24.4616 13.7417 24.4738 13.6529C24.4859 13.5641 24.497 13.4751 24.5071 13.3861C24.5172 13.297 24.5263 13.2078 24.5343 13.1185C24.5424 13.0292 24.5495 12.9399 24.5555 12.8504C24.5616 12.761 24.5666 12.6715 24.5706 12.5819C24.5746 12.4924 24.5775 12.4028 24.5795 12.3132C24.5815 12.2235 24.5824 12.1339 24.5823 12.0442C24.5823 8.82616 23.3031 5.80263 20.9809 3.53161C20.9093 3.46147 20.8368 3.39224 20.7635 3.32387C20.6903 3.2555 20.6162 3.18803 20.5413 3.12146C20.4664 3.05491 20.3906 2.98926 20.3141 2.92453C20.2376 2.85981 20.1603 2.796 20.0823 2.73315C20.0042 2.67032 19.9254 2.60844 19.8458 2.54751C19.7663 2.48658 19.686 2.42663 19.6049 2.36765C19.5239 2.30867 19.4422 2.25069 19.3598 2.1937C19.2773 2.13671 19.1942 2.08073 19.1104 2.02576C19.0266 1.97079 18.9422 1.91685 18.8571 1.86394C18.772 1.81102 18.6862 1.75915 18.5999 1.70832C18.5135 1.65749 18.4265 1.60772 18.3389 1.55901C18.2514 1.51029 18.1632 1.46265 18.0745 1.41608C17.9857 1.36951 17.8964 1.32402 17.8066 1.27962C17.7168 1.23522 17.6264 1.19192 17.5355 1.14972C17.4446 1.10752 17.3532 1.06643 17.2613 1.02645C17.1694 0.986471 17.0771 0.947614 16.9842 0.909881C16.8914 0.872149 16.7981 0.835548 16.7043 0.800084C16.6106 0.76462 16.5165 0.730302 16.4219 0.697126C16.3273 0.663953 16.2324 0.63193 16.1371 0.601063C16.0417 0.570199 15.946 0.540498 15.8499 0.511958C15.7539 0.483418 15.6575 0.456053 15.5608 0.429859C15.464 0.403665 15.367 0.37865 15.2696 0.354815C15.1723 0.330983 15.0747 0.308335 14.9768 0.286873C14.8789 0.265412 14.7808 0.245145 14.6824 0.226072C14.584 0.206997 14.4854 0.189122 14.3866 0.172446C14.2878 0.155769 14.1888 0.140297 14.0896 0.126028C13.9904 0.111759 13.8911 0.0986983 13.7915 0.0868457C13.692 0.0749928 13.5924 0.0643517 13.4926 0.0549221C13.3929 0.0454924 13.293 0.0372769 13.193 0.030276C13.0931 0.023275 12.993 0.0174905 12.8929 0.0129223C12.7928 0.00835408 12.6926 0.00500361 12.5925 0.00287092C12.4923 0.000738205 12.3921 -0.000176125 12.2918 0.000127918C12.1916 -0.000328587 12.0914 0.000436764 11.9912 0.00242398C11.891 0.00441121 11.7908 0.00761971 11.6907 0.0120495C11.5906 0.0164792 11.4905 0.0221289 11.3905 0.0289986C11.2906 0.0358684 11.1907 0.0439561 11.0909 0.0532616C10.9911 0.0625671 10.8914 0.0730877 10.7919 0.0848237C10.6924 0.0965594 10.593 0.109507 10.4937 0.123666C10.3945 0.137825 10.2955 0.153192 10.1966 0.169766C10.0978 0.18634 9.99918 0.204116 9.90076 0.223096C9.80235 0.242075 9.7042 0.262251 9.60626 0.283622C9.50834 0.304995 9.41069 0.327561 9.31333 0.351314C9.21597 0.375067 9.1189 0.400005 9.02212 0.426125C8.9254 0.452248 8.82896 0.479545 8.73284 0.508016C8.63675 0.536487 8.54102 0.566127 8.44564 0.596934C8.35029 0.627743 8.2553 0.659707 8.16069 0.692828C8.06612 0.725954 7.97193 0.760224 7.87816 0.795643C7.78441 0.831065 7.69112 0.867621 7.59824 0.905314C7.50537 0.94301 7.41297 0.98183 7.32104 1.02178C7.22915 1.06173 7.13772 1.10279 7.0468 1.14496C6.95588 1.18714 6.86548 1.23042 6.77562 1.2748C6.68575 1.31919 6.59646 1.36466 6.50771 1.41121C6.41895 1.45778 6.33077 1.50541 6.24317 1.55412C6.15557 1.60283 6.06858 1.6526 5.9822 1.70343C5.89584 1.75426 5.81009 1.80613 5.72497 1.85906C5.63986 1.91198 5.5554 1.96593 5.4716 2.02091C5.3878 2.07589 5.30469 2.13189 5.22224 2.18889C5.13981 2.2459 5.0581 2.30391 4.97707 2.36291C4.89604 2.42191 4.81575 2.48189 4.73618 2.54285C4.65665 2.60381 4.57784 2.66573 4.49977 2.72859C4.42172 2.79149 4.34447 2.85532 4.26798 2.92007C4.19149 2.98483 4.11579 3.05053 4.04088 3.11713C3.96601 3.18373 3.89194 3.25125 3.8187 3.31967C3.74545 3.38809 3.67305 3.45738 3.6015 3.52757C1.27795 5.80263 0 8.82616 0 12.0415C0 15.2582 1.27795 18.2831 3.6015 20.5528C3.67308 20.623 3.74551 20.6922 3.81875 20.7606C3.89202 20.829 3.96611 20.8965 4.04099 20.9631C4.1159 21.0297 4.1916 21.0954 4.26811 21.1602C4.34463 21.2249 4.42191 21.2887 4.49995 21.3516C4.578 21.4144 4.65681 21.4763 4.73639 21.5373C4.81597 21.5983 4.89625 21.6582 4.97728 21.7172C5.05831 21.7762 5.14005 21.8342 5.22248 21.8912C5.30493 21.9482 5.38804 22.0042 5.47184 22.0592C5.55564 22.1142 5.64009 22.1681 5.72521 22.221C5.81033 22.274 5.89608 22.3258 5.98246 22.3766C6.06885 22.4275 6.15584 22.4772 6.24344 22.526C6.33103 22.5747 6.41918 22.6223 6.50794 22.6689C6.5967 22.7154 6.68601 22.7609 6.77588 22.8053C6.86575 22.8497 6.95612 22.893 7.04704 22.9352C7.13796 22.9774 7.22938 23.0184 7.32128 23.0584C7.41321 23.0983 7.50561 23.1372 7.59845 23.1749C7.69133 23.2126 7.78462 23.2492 7.87837 23.2846C7.97214 23.32 8.06631 23.3543 8.16087 23.3874C8.25549 23.4206 8.35047 23.4526 8.44583 23.4834C8.54118 23.5142 8.63691 23.5439 8.733 23.5724C8.82909 23.6009 8.92553 23.6282 9.02226 23.6543C9.11904 23.6805 9.21608 23.7054 9.31344 23.7292C9.4108 23.753 9.50845 23.7756 9.60636 23.797C9.70428 23.8184 9.80243 23.8386 9.90084 23.8576C9.99926 23.8766 10.0979 23.8944 10.1967 23.911C10.2955 23.9277 10.3946 23.943 10.4938 23.9572C10.593 23.9714 10.6924 23.9844 10.7919 23.9962C10.8914 24.008 10.9911 24.0185 11.0909 24.0279C11.1907 24.0372 11.2906 24.0454 11.3905 24.0523C11.4905 24.0592 11.5906 24.0649 11.6907 24.0694C11.7908 24.0738 11.891 24.0771 11.9912 24.0791C12.0914 24.0812 12.1916 24.082 12.2918 24.0816C12.3746 24.0819 12.4573 24.0813 12.54 24.08C12.6226 24.0786 12.7053 24.0764 12.788 24.0733C12.8706 24.0703 12.9532 24.0665 13.0358 24.0618C13.1184 24.0571 13.2009 24.0516 13.2834 24.0452C13.3659 24.0389 13.4483 24.0317 13.5306 24.0237C13.6129 24.0158 13.6951 24.007 13.7773 23.9973C13.8594 23.9877 13.9415 23.9772 14.0234 23.9659C14.1053 23.9546 14.1872 23.9425 14.2688 23.9296C14.3505 23.9167 14.4321 23.9029 14.5135 23.8884C14.5949 23.8738 14.6762 23.8585 14.7573 23.8423C14.8384 23.8261 14.9194 23.8091 15.0001 23.7913C15.0809 23.7735 15.1615 23.7548 15.2419 23.7354C15.3223 23.716 15.4025 23.6958 15.4824 23.6747C15.5624 23.6537 15.6422 23.6319 15.7218 23.6092C15.8013 23.5866 15.8806 23.5632 15.9597 23.539C16.0388 23.5147 16.1177 23.4898 16.1962 23.4639C16.2748 23.4381 16.3531 23.4116 16.4312 23.3842C16.5092 23.3568 16.587 23.3287 16.6645 23.2997C16.742 23.2708 16.8192 23.2411 16.896 23.2106C16.9729 23.1802 17.0495 23.1489 17.1258 23.1169C17.202 23.0849 17.278 23.0521 17.3536 23.0186C17.4292 22.9851 17.5045 22.9508 17.5794 22.9157C17.6543 22.8807 17.7289 22.8449 17.8031 22.8084C17.8773 22.7719 17.9511 22.7346 18.0246 22.6965C18.098 22.6585 18.1711 22.6198 18.2438 22.5803C18.3165 22.5408 18.3887 22.5006 18.4606 22.4597C18.5325 22.4188 18.604 22.3771 18.675 22.3348C18.746 22.2924 18.8166 22.2493 18.8868 22.2056C18.957 22.1618 19.0267 22.1173 19.096 22.0721C19.1653 22.027 19.2341 21.9811 19.3025 21.9346C19.3708 21.888 19.4387 21.8408 19.5062 21.7929C19.5736 21.7449 19.6405 21.6964 19.7069 21.6471L24.7917 26.6283C24.8069 26.6431 24.8224 26.6573 24.8382 26.6713C24.8541 26.685 24.8702 26.6988 24.8867 26.712C24.9032 26.7251 24.92 26.7378 24.9371 26.7505C24.9542 26.7626 24.9716 26.7748 24.9893 26.7864C25.007 26.7977 25.0249 26.8088 25.0431 26.8196C25.0614 26.8302 25.0798 26.8405 25.0985 26.8502C25.1172 26.86 25.1362 26.8692 25.1553 26.8782C25.1745 26.8872 25.1939 26.8956 25.2134 26.9035C25.233 26.9114 25.2528 26.9188 25.2727 26.9259C25.2926 26.9328 25.3127 26.9394 25.3329 26.9455C25.3532 26.9513 25.3736 26.9568 25.394 26.9621C25.4146 26.9668 25.4352 26.9713 25.4559 26.9756C25.4766 26.9795 25.4974 26.9832 25.5183 26.9864C25.5392 26.9893 25.5602 26.9919 25.5812 26.994C25.6022 26.9959 25.6233 26.9975 25.6443 26.9985C25.6654 26.9996 25.6866 27.0001 25.7077 27.0001C25.7288 27.0001 25.7499 26.9996 25.771 26.9985C25.7921 26.9975 25.8131 26.9959 25.8341 26.994C25.8552 26.9919 25.8761 26.9893 25.897 26.9864C25.9179 26.9832 25.9387 26.9795 25.9594 26.9756C25.9802 26.9713 26.0008 26.9668 26.0213 26.9621C26.0418 26.9568 26.0622 26.9513 26.0824 26.9455C26.1026 26.9394 26.1227 26.9328 26.1426 26.9259C26.1626 26.9188 26.1823 26.9114 26.2019 26.9035C26.2215 26.8956 26.2408 26.8872 26.2599 26.8782C26.2791 26.8692 26.2981 26.86 26.3168 26.8502C26.3355 26.8405 26.354 26.8302 26.3722 26.8196C26.3903 26.8088 26.4083 26.7977 26.4262 26.7864C26.4436 26.7748 26.4611 26.7626 26.4782 26.7505C26.4954 26.7378 26.5122 26.7251 26.5286 26.712C26.545 26.6988 26.5613 26.685 26.5771 26.6713C26.593 26.6573 26.6083 26.6431 26.6236 26.6283C26.6384 26.6135 26.6529 26.5988 26.6671 26.5834C26.6814 26.5681 26.6951 26.5523 26.7085 26.5365C26.7217 26.5206 26.7347 26.5043 26.7473 26.4877C26.76 26.4708 26.7721 26.4539 26.7837 26.4367C26.7953 26.4193 26.8067 26.4019 26.8175 26.3841C26.8283 26.3664 26.8386 26.3483 26.8486 26.33C26.8587 26.3117 26.8682 26.2931 26.8771 26.2744C26.8861 26.2556 26.8946 26.2365 26.9027 26.2173C26.9107 26.1981 26.9183 26.1787 26.9254 26.1591C26.9323 26.1395 26.9389 26.1198 26.9452 26.0998C26.9513 26.0799 26.9568 26.0599 26.9621 26.0396C26.9671 26.0195 26.9716 25.9991 26.9758 25.9787C26.9798 25.9583 26.9832 25.9377 26.9864 25.9171C26.9895 25.8965 26.9919 25.8758 26.994 25.8551C26.9961 25.8344 26.9977 25.8136 26.9988 25.7928C26.9996 25.772 27.0001 25.7511 27.0001 25.7303C27.0001 25.7095 26.9996 25.6887 26.9985 25.6678C26.9972 25.647 26.9956 25.6263 26.9935 25.6055C26.9914 25.5848 26.9888 25.5641 26.9856 25.5435C26.9824 25.5229 26.9787 25.5024 26.9748 25.482C26.9705 25.4616 26.9658 25.4413 26.9605 25.4211C26.9552 25.401 26.9497 25.3809 26.9436 25.361C26.9373 25.3411 26.9304 25.3214 26.9236 25.3018C26.9162 25.2823 26.9085 25.2629 26.9006 25.2437C26.8922 25.2245 26.8837 25.2056 26.8748 25.1868C26.8655 25.1681 26.856 25.1495 26.846 25.1313C26.836 25.113 26.8254 25.095 26.8146 25.0772C26.8035 25.0595 26.7922 25.042 26.7806 25.0248C26.7687 25.0077 26.7566 24.9908 26.7439 24.9742C26.7312 24.9576 26.718 24.9414 26.7048 24.9254C26.6914 24.9095 26.6777 24.894 26.6634 24.8787C26.6492 24.8635 26.6344 24.8486 26.6196 24.8341L26.6196 24.8328ZM1.74266 12.1577C1.74266 6.44572 6.74369 1.70508 12.2405 1.70508C17.7373 1.70508 22.7857 6.44572 22.7911 12.1577C22.7938 17.8684 17.7373 22.5117 12.2405 22.5117C6.74369 22.5117 1.74401 17.8684 1.74401 12.1577L1.74266 12.1577Z"   fill="#161B08" fill-opacity="0.555">
    </path>
</svg>
