<svg xmlns="http://www.w3.org/2000/svg" xmlns:xlink="http://www.w3.org/1999/xlink" width="18" height="19" viewBox="0 0 18 19" fill="none">
    <path d="M12.8925 18.8277L8.70374 16.0253L7.28337 18.3028C6.80902 19.0597 5.84961 19.0597 5.69819 18.2092C5.75313 16.4377 5.65263 15.7676 5.69819 14.0151L7.60496 11.8787L14.274 4.36138L4.30998 13.0086L0.489741 10.4219C0.480165 10.416 0.470695 10.41 0.46133 10.4038C0.45195 10.3975 0.442681 10.3912 0.433526 10.3847C0.424355 10.3782 0.415296 10.3715 0.406347 10.3647C0.397397 10.3578 0.388561 10.3509 0.379841 10.3438C0.371119 10.3367 0.362514 10.3294 0.35403 10.322C0.345544 10.3146 0.33718 10.307 0.328941 10.2994C0.3207 10.2917 0.312587 10.2839 0.304602 10.2759C0.296616 10.268 0.288763 10.2599 0.281041 10.2516C0.273318 10.2434 0.26573 10.2351 0.258281 10.2266C0.250829 10.2182 0.243518 10.2096 0.236347 10.2009C0.229176 10.1922 0.22215 10.1833 0.215266 10.1744C0.208381 10.1654 0.201644 10.1564 0.195055 10.1472C0.188467 10.138 0.182029 10.1288 0.175743 10.1194C0.169456 10.11 0.163323 10.1005 0.157345 10.0909C0.151367 10.0813 0.145546 10.0716 0.139884 10.0618C0.134221 10.0521 0.128719 10.0422 0.123377 10.0322C0.118037 10.0223 0.11286 10.0122 0.107846 10.0021C0.102832 9.99191 0.0979849 9.98169 0.0933032 9.97139C0.0886232 9.96109 0.0841112 9.95071 0.0797674 9.94026C0.0754238 9.92981 0.0712515 9.9193 0.0672513 9.9087C0.0632509 9.8981 0.0594238 9.88744 0.0557695 9.87674C0.0521153 9.86601 0.0486368 9.85523 0.0453345 9.84439C0.0420321 9.83356 0.0389062 9.82267 0.0359568 9.81173C0.0330088 9.8008 0.0302395 9.78982 0.027649 9.77878C0.0250584 9.76774 0.022648 9.75667 0.0204174 9.74557C0.0181868 9.73444 0.0161379 9.72329 0.0142702 9.71212C0.0124027 9.70095 0.010718 9.68974 0.009216 9.67849C0.00771287 9.66725 0.00639313 9.656 0.00525692 9.64472C0.00412071 9.63343 0.00316886 9.62213 0.00240116 9.61083C0.00163347 9.59952 0.00104931 9.5882 0.000648691 9.57686C0.000249508 9.56552 3.45031e-05 9.55418 3.83367e-06 9.54284C-2.68358e-05 9.5315 0.00012731 9.52019 0.00046643 9.50885C0.000804274 9.49751 0.00132709 9.48619 0.00203472 9.47487C0.00274235 9.46356 0.00363353 9.45226 0.00470839 9.44096C0.00578311 9.42967 0.00704134 9.41841 0.00848329 9.40716C0.00992508 9.3959 0.0115499 9.38469 0.0133575 9.3735C0.0151649 9.36231 0.017154 9.35116 0.0193244 9.34004C0.021495 9.32891 0.0238456 9.31782 0.026376 9.30678C0.0289079 9.29574 0.0316188 9.28474 0.0345079 9.27378C0.0373972 9.26282 0.0404639 9.25191 0.0437079 9.24106C0.0469529 9.23021 0.0503731 9.21942 0.0539689 9.20867C0.0575658 9.19793 0.061336 9.18727 0.065279 9.17665C0.0692221 9.16603 0.0733371 9.1555 0.0776235 9.14501C0.0819114 9.13454 0.0863674 9.12413 0.090992 9.11381C0.0956176 9.10349 0.10041 9.09323 0.105369 9.08305C0.110329 9.0729 0.115452 9.06281 0.120739 9.05281C0.126026 9.04283 0.131475 9.03291 0.137085 9.0231C0.142694 9.01328 0.148462 9.00356 0.154389 8.99393C0.160316 8.98431 0.166396 8.97479 0.172632 8.96538C0.178868 8.95595 0.185256 8.94665 0.191795 8.93743C0.198334 8.92823 0.205022 8.91914 0.211859 8.91015C0.218695 8.90117 0.225674 8.89231 0.232798 8.88355C0.239923 8.8748 0.247186 8.86615 0.254592 8.85765C0.261995 8.84915 0.269537 8.84076 0.277216 8.83252C0.284894 8.82425 0.292703 8.81611 0.300647 8.80812C0.30859 8.80013 0.316662 8.79229 0.324858 8.78455C0.333057 8.77682 0.34138 8.76923 0.349826 8.76179C0.35827 8.75433 0.366835 8.74702 0.375518 8.73986C0.384202 8.73269 0.393 8.72568 0.401911 8.71881C0.41083 8.71194 0.419854 8.70522 0.428982 8.69865C0.438111 8.69208 0.447344 8.68566 0.456682 8.67941C0.46602 8.67316 0.475454 8.66705 0.484989 8.6611C0.494536 8.65514 0.504173 8.64936 0.513903 8.64374C0.523617 8.63812 0.533431 8.63266 0.54334 8.62736L16.4889 0.156437C16.499 0.149973 16.509 0.143694 16.5193 0.1376C16.5295 0.131506 16.5398 0.125601 16.5502 0.119886C16.5607 0.11417 16.5712 0.108648 16.5818 0.10332C16.5925 0.0979904 16.6032 0.092858 16.614 0.0879225C16.6248 0.0829855 16.6357 0.0782494 16.6467 0.0737139C16.6577 0.0691768 16.6687 0.0648426 16.6799 0.0607112C16.691 0.0565798 16.7022 0.0526546 16.7135 0.0489356C16.7247 0.0452154 16.7361 0.0417027 16.7475 0.0383979C16.7589 0.0350945 16.7703 0.0320006 16.7819 0.0291169C16.7934 0.0262317 16.8049 0.0235589 16.8165 0.021099C16.8281 0.0186391 16.8398 0.0163926 16.8515 0.0143592C16.8632 0.012326 16.8749 0.0105083 16.8866 0.00890608C16.8984 0.00730233 16.9102 0.00591481 16.922 0.00474345C16.9338 0.0035721 16.9456 0.00261766 16.9574 0.00188016C16.9693 0.00114257 16.9811 0.000621897 16.993 0.000318062C17.0048 1.43104e-05 17.0167 -7.18755e-05 17.0286 5.95054e-05C17.0404 0.000190967 17.0523 0.000539913 17.0641 0.00110651C17.076 0.00167173 17.0878 0.00245451 17.0996 0.00345488C17.1114 0.00445514 17.1232 0.00567177 17.135 0.00710442C17.1468 0.00853578 17.1585 0.0101833 17.1702 0.0120469C17.182 0.0139107 17.1936 0.0159885 17.2053 0.0182803C17.2169 0.0205706 17.2285 0.0230744 17.2401 0.0257915C17.2516 0.0285086 17.2631 0.0314364 17.2746 0.0345744C17.286 0.0377124 17.2974 0.0410599 17.3087 0.0446162C17.3201 0.0481726 17.3313 0.0519353 17.3425 0.0559043C17.3537 0.0598732 17.3648 0.0640463 17.3759 0.0684238C17.3869 0.0727997 17.3979 0.0773769 17.4088 0.0821555C17.4196 0.0869342 17.4304 0.0919112 17.4411 0.0970869C17.4518 0.102261 17.4624 0.10763 17.4729 0.113192C17.4835 0.118757 17.4939 0.124511 17.5042 0.130455C17.5145 0.136399 17.5247 0.142532 17.5348 0.148852C17.5448 0.15517 17.5548 0.161671 17.5647 0.168355C17.5745 0.175039 17.5842 0.181902 17.5938 0.188943C17.6034 0.195984 17.6129 0.203199 17.6223 0.210588C17.6316 0.217977 17.6408 0.225534 17.6499 0.23326C17.659 0.240985 17.6679 0.248876 17.6767 0.256932C17.6855 0.264985 17.6942 0.273198 17.7027 0.281568C17.7112 0.28994 17.7195 0.298464 17.7277 0.307143C17.7359 0.31582 17.7439 0.324645 17.7518 0.333617C17.7597 0.342588 17.7674 0.351702 17.775 0.360957C17.7825 0.370213 17.7899 0.379602 17.7971 0.389129C17.8044 0.398656 17.8114 0.40831 17.8183 0.418095C17.8251 0.42788 17.8318 0.437787 17.8384 0.447816C17.8449 0.457847 17.8512 0.467993 17.8574 0.478255C17.8635 0.488517 17.8695 0.49889 17.8753 0.50937C17.8811 0.519851 17.8867 0.530435 17.8921 0.541121C17.8975 0.551807 17.9027 0.562589 17.9077 0.573466C17.9127 0.584345 17.9175 0.595311 17.9222 0.606364C17.9268 0.617418 17.9312 0.628554 17.9354 0.63977C17.9397 0.650988 17.9437 0.662278 17.9475 0.673643C17.9514 0.685007 17.955 0.696437 17.9584 0.707935C17.9618 0.719433 17.965 0.730988 17.968 0.742602C17.971 0.754217 17.9738 0.765882 17.9764 0.777598C17.979 0.789312 17.9814 0.801075 17.9835 0.812887C17.9857 0.824686 17.9876 0.836525 17.9894 0.848408C17.9911 0.860277 17.9926 0.872182 17.994 0.884121C17.9953 0.896047 17.9964 0.907992 17.9973 0.91996C17.9982 0.931941 17.9988 0.943931 17.9993 0.955927C17.9997 0.967923 18 0.979925 18 0.991936C18 1.00393 17.9998 1.01593 17.9994 1.02792C17.9991 1.03993 17.9984 1.05192 17.9976 1.06389C17.9968 1.07587 17.9957 1.08783 17.9945 1.09977C17.9932 1.11171 17.9917 1.12362 17.99 1.13551C17.9884 1.14739 17.9865 1.15924 17.9844 1.17105L14.4535 18.0505C14.451 18.0661 14.4482 18.0817 14.445 18.0972C14.4418 18.1127 14.4383 18.1282 14.4345 18.1435C14.4307 18.1589 14.4266 18.1742 14.4222 18.1894C14.4177 18.2046 14.413 18.2197 14.4079 18.2347C14.4029 18.2496 14.3975 18.2645 14.3918 18.2793C14.3861 18.2941 14.3802 18.3087 14.3739 18.3232C14.3676 18.3377 14.361 18.3521 14.3541 18.3663C14.3473 18.3805 14.3401 18.3946 14.3326 18.4086C14.3252 18.4225 14.3174 18.4363 14.3094 18.4498C14.3014 18.4634 14.2931 18.4769 14.2845 18.4901C14.2759 18.5034 14.267 18.5164 14.2579 18.5293C14.2488 18.5421 14.2394 18.5548 14.2297 18.5673C14.2201 18.5798 14.2102 18.592 14.2 18.6041C14.1899 18.6161 14.1795 18.628 14.1688 18.6396C14.1582 18.6512 14.1473 18.6626 14.1362 18.6738C14.1251 18.6849 14.1138 18.6958 14.1022 18.7065C14.0906 18.7172 14.0789 18.7276 14.0668 18.7378C14.0548 18.7479 14.0426 18.7579 14.0302 18.7675C14.0178 18.7771 14.0052 18.7865 13.9924 18.7957C13.9796 18.8048 13.9666 18.8136 13.9535 18.8222C13.9403 18.8308 13.927 18.8391 13.9135 18.8471C13.9 18.8551 13.8863 18.8628 13.8725 18.8702C13.8587 18.8776 13.8447 18.8848 13.8306 18.8916C13.8164 18.8985 13.8022 18.905 13.7878 18.9112C13.7734 18.9174 13.7589 18.9234 13.7443 18.929C13.7296 18.9346 13.7149 18.9399 13.7001 18.9449C13.6852 18.9499 13.6702 18.9546 13.6552 18.9589C13.6402 18.9633 13.625 18.9673 13.6098 18.971C13.5946 18.9748 13.5793 18.9781 13.5639 18.9812C13.5486 18.9843 13.5332 18.987 13.5177 18.9894C13.5023 18.9919 13.4868 18.994 13.4712 18.9957C13.4557 18.9975 13.4401 18.9989 13.4244 19C13.4008 18.9998 13.3772 18.9987 13.3536 18.9968C13.3301 18.9948 13.3066 18.9919 13.2833 18.9881C13.2599 18.9844 13.2368 18.9797 13.2138 18.9741C13.1908 18.9686 13.168 18.9622 13.1455 18.9549C13.123 18.9476 13.1008 18.9394 13.0789 18.9305C13.0569 18.9215 13.0354 18.9116 13.0142 18.901C12.9931 18.8904 12.9723 18.8789 12.952 18.8667C12.9317 18.8545 12.9118 18.8415 12.8925 18.8277Z"   fill="#FFFFFF" >
    </path>
</svg>
