<svg xmlns="http://www.w3.org/2000/svg" xmlns:xlink="http://www.w3.org/1999/xlink" width="19" height="22" viewBox="0 0 19 22" fill="none">
    <path d="M17.01 6.88C16.9991 6.88 16.991 6.88 16.98 6.88C16.969 6.88 16.951 6.88 16.94 6.88C16.929 6.88 16.921 6.88 16.91 6.88C16.899 6.88 16.891 6.88 16.88 6.88C16.8691 6.88 16.8509 6.88 16.84 6.88C16.8291 6.88 16.8208 6.89 16.81 6.89C16.7992 6.89 16.7907 6.9 16.78 6.9C16.7693 6.9 16.7606 6.91 16.75 6.91C16.7395 6.91 16.7304 6.92 16.72 6.92C16.7096 6.92 16.7002 6.93 16.69 6.93C16.6798 6.93 16.66 6.94 16.66 6.94L16.63 6.96L16.6 6.97L16.57 6.99L16.54 7.01L16.52 7.03L16.49 7.05L16.47 7.07L16.44 7.1L16.42 7.12L16.4 7.15L16.38 7.18L16.36 7.2L16.35 7.23C16.35 7.23 16.33 7.24997 16.33 7.26C16.33 7.27003 16.32 7.27973 16.32 7.29C16.32 7.30025 16.3 7.30954 16.3 7.32C16.3 7.33046 16.29 7.34937 16.29 7.36C16.29 7.37066 16.28 7.37919 16.28 7.39C16.28 7.40081 16.27 7.40906 16.27 7.42C16.27 7.43094 16.27 7.43896 16.27 7.45C16.27 7.46104 16.26 7.47887 16.26 7.49L14.91 19.86C14.91 19.8852 14.91 19.9146 14.91 19.94C14.91 20.3195 14.6031 20.62 14.23 20.62L4.77 20.62C4.75897 20.62 4.75103 20.62 4.74 20.62C4.72899 20.62 4.71099 20.62 4.7 20.62C4.68901 20.62 4.68091 20.62 4.67 20.62C4.65909 20.62 4.65082 20.61 4.64 20.61C4.62918 20.61 4.6107 20.6 4.6 20.6C4.5893 20.6 4.58057 20.6 4.57 20.6C4.55945 20.6 4.5504 20.58 4.54 20.58C4.52962 20.58 4.52021 20.57 4.51 20.57C4.49981 20.57 4.48 20.56 4.48 20.56L4.45 20.54L4.42 20.53L4.39 20.51L4.37 20.49L4.34 20.47L4.32 20.45L4.29 20.42L4.27 20.4L4.25 20.37L4.23 20.35L4.21 20.32L4.19 20.29L4.17 20.26C4.17 20.26 4.16 20.2402 4.16 20.23C4.16 20.2198 4.14 20.2104 4.14 20.2C4.14 20.1896 4.13 20.1806 4.13 20.17C4.13 20.1594 4.12 20.1508 4.12 20.14C4.12 20.1292 4.11 20.1109 4.11 20.1C4.11 20.0891 4.11 20.081 4.11 20.07C4.11 20.059 4.1 20.0511 4.1 20.04C4.1 20.0289 4.1 20.0112 4.1 20C4.1 19.9888 4.09 19.9812 4.09 19.97C4.09 19.9588 4.09 19.9513 4.09 19.94C4.09 19.9146 4.09 19.8852 4.09 19.86L2.74 7.49C2.74 7.479 2.73 7.46094 2.73 7.45C2.73 7.43906 2.72 7.43081 2.72 7.42C2.72 7.40919 2.72 7.40068 2.72 7.39C2.72 7.37932 2.71 7.37051 2.71 7.36C2.71 7.34949 2.7 7.34033 2.7 7.33C2.7 7.31967 2.68 7.31012 2.68 7.3C2.68 7.28988 2.67 7.27 2.67 7.27L2.65 7.24L2.64 7.21L2.62 7.18L2.6 7.15L2.58 7.13L2.56 7.1L2.53 7.08L2.51 7.06L2.48 7.04L2.46 7.02L2.43 7L2.4 6.98L2.37 6.96L2.34 6.95C2.34 6.95 2.32015 6.94 2.31 6.94C2.29987 6.94 2.29034 6.93 2.28 6.93C2.26968 6.93 2.26049 6.92 2.25 6.92C2.23953 6.92 2.23061 6.91 2.22 6.91C2.20939 6.91 2.20072 6.9 2.19 6.9C2.1793 6.9 2.1708 6.9 2.16 6.9C2.14922 6.9 2.13087 6.89 2.12 6.89C2.10915 6.89 2.10088 6.89 2.09 6.89C2.07911 6.89 2.07088 6.89 2.06 6.89C2.04911 6.89 2.04087 6.89 2.03 6.89C2.01913 6.89 2.00082 6.89 1.99 6.89C1.97918 6.89 1.97075 6.9 1.96 6.9C1.94925 6.9 1.94066 6.9 1.93 6.9C1.91934 6.9 1.91054 6.91 1.9 6.91C1.88946 6.91 1.87039 6.92 1.86 6.92C1.84961 6.92 1.84022 6.93 1.83 6.93C1.81978 6.93 1.81004 6.94 1.8 6.94C1.78998 6.94 1.77 6.96 1.77 6.96L1.74 6.97L1.72 6.99L1.69 7.01L1.66 7.03L1.64 7.05L1.61 7.07L1.59 7.09L1.57 7.12L1.54 7.14L1.52 7.17L1.51 7.2L1.49 7.22L1.47 7.25C1.47 7.25 1.46 7.26997 1.46 7.28C1.46 7.29003 1.44 7.29975 1.44 7.31C1.44 7.32025 1.43 7.32956 1.43 7.34C1.43 7.35044 1.42 7.36939 1.42 7.38C1.42 7.39059 1.41 7.39924 1.41 7.41C1.41 7.42076 1.41 7.42913 1.41 7.44C1.41 7.45089 1.4 7.45902 1.4 7.47C1.4 7.48098 1.39 7.49894 1.39 7.51C1.39 7.52104 1.39 7.52891 1.39 7.54C1.39 7.55109 1.39 7.55889 1.39 7.57C1.39 7.58111 1.39 7.59889 1.39 7.61C1.39 7.62111 1.39 7.62894 1.39 7.64L2.74 19.98C2.74 20.0134 2.75 20.0467 2.75 20.08C2.75 20.1133 2.76 20.1469 2.76 20.18C2.76 20.2131 2.77 20.2471 2.77 20.28C2.77 20.3129 2.79 20.3474 2.79 20.38C2.79 20.4126 2.81 20.4378 2.81 20.47C2.81 20.5022 2.82993 20.5383 2.84 20.57C2.85009 20.6018 2.85844 20.6288 2.87 20.66C2.88158 20.6912 2.89699 20.7294 2.91 20.76C2.92306 20.7906 2.93553 20.8201 2.95 20.85C2.96449 20.8799 2.98412 20.9108 3 20.94C3.01588 20.9692 3.03277 20.9916 3.05 21.02C3.06725 21.0483 3.08143 21.0825 3.1 21.11C3.11857 21.1375 3.14016 21.1635 3.16 21.19C3.17986 21.2165 3.19894 21.2345 3.22 21.26C3.2411 21.2855 3.25774 21.3155 3.28 21.34C3.30228 21.3644 3.3266 21.3867 3.35 21.41C3.3734 21.4333 3.39553 21.4579 3.42 21.48C3.44447 21.5021 3.4745 21.5192 3.5 21.54C3.5255 21.5608 3.55355 21.5805 3.58 21.6C3.60645 21.6196 3.63264 21.6417 3.66 21.66C3.68738 21.6783 3.71182 21.693 3.74 21.71C3.7682 21.727 3.80104 21.7445 3.83 21.76C3.85898 21.7755 3.88035 21.796 3.91 21.81C3.93967 21.8242 3.96972 21.8375 4 21.85C4.0303 21.8627 4.06915 21.869 4.1 21.88C4.13087 21.8912 4.15866 21.91 4.19 21.91C4.22136 21.91 4.24824 21.94 4.28 21.94C4.31176 21.94 4.34791 21.96 4.38 21.96C4.41209 21.96 4.44763 21.98 4.48 21.98C4.51237 21.98 4.53744 21.99 4.57 21.99C4.60256 21.99 4.63734 22 4.67 22C4.70268 22 4.7373 22 4.77 22L14.23 22C14.2627 22 14.2973 22 14.33 22C14.3627 22 14.3975 21.99 14.43 21.99C14.4626 21.99 14.4977 21.98 14.53 21.98C14.5623 21.98 14.5879 21.96 14.62 21.96C14.6521 21.96 14.6882 21.94 14.72 21.94C14.7518 21.94 14.7787 21.91 14.81 21.91C14.8413 21.91 14.8792 21.891 14.91 21.88C14.9409 21.869 14.9697 21.8627 15 21.85C15.0303 21.8373 15.0603 21.824 15.09 21.81C15.1197 21.796 15.1511 21.7757 15.18 21.76C15.209 21.7445 15.2318 21.727 15.26 21.71C15.2882 21.693 15.3127 21.6783 15.34 21.66C15.3674 21.6417 15.4036 21.6196 15.43 21.6C15.4564 21.5805 15.4745 21.5608 15.5 21.54C15.5255 21.5192 15.5555 21.5021 15.58 21.48C15.6045 21.4579 15.6266 21.4333 15.65 21.41C15.6734 21.3867 15.6978 21.3644 15.72 21.34C15.7423 21.3156 15.7589 21.2855 15.78 21.26C15.8011 21.2345 15.8202 21.2165 15.84 21.19C15.8598 21.1635 15.8814 21.1375 15.9 21.11C15.9186 21.0825 15.9428 21.0483 15.96 21.02C15.9772 20.9916 15.9941 20.9692 16.01 20.94C16.0259 20.9108 16.0356 20.8799 16.05 20.85C16.0645 20.8201 16.077 20.7906 16.09 20.76C16.103 20.7294 16.1184 20.6912 16.13 20.66C16.1416 20.6288 16.1499 20.6017 16.16 20.57C16.1701 20.5383 16.19 20.5022 16.19 20.47C16.19 20.4378 16.21 20.4126 16.21 20.38C16.21 20.3474 16.23 20.3129 16.23 20.28C16.23 20.2471 16.25 20.2131 16.25 20.18C16.25 20.1469 16.26 20.1133 16.26 20.08C16.26 20.0467 16.26 20.0133 16.26 19.98L17.61 7.64C17.61 7.62881 17.61 7.61124 17.61 7.6C17.61 7.58876 17.61 7.58126 17.61 7.57C17.61 7.55874 17.61 7.55126 17.61 7.54C17.61 7.52874 17.61 7.51121 17.61 7.5C17.61 7.48876 17.61 7.48115 17.61 7.47C17.61 7.45885 17.6 7.45106 17.6 7.44C17.6 7.42894 17.59 7.41096 17.59 7.4C17.59 7.38904 17.58 7.38081 17.58 7.37C17.58 7.35919 17.57 7.35063 17.57 7.34C17.57 7.32934 17.56 7.32044 17.56 7.31C17.56 7.29954 17.55 7.29023 17.55 7.28C17.55 7.26977 17.54 7.25 17.54 7.25L17.52 7.22L17.5 7.19L17.48 7.16L17.46 7.13L17.44 7.11L17.42 7.08L17.4 7.06L17.37 7.04L17.34 7.02L17.32 7L17.29 6.98L17.26 6.96L17.23 6.94C17.23 6.94 17.2101 6.93 17.2 6.93C17.1898 6.93 17.1804 6.92 17.17 6.92C17.1596 6.92 17.1505 6.91 17.14 6.91C17.1295 6.91 17.1207 6.9 17.11 6.9C17.0993 6.9 17.0908 6.89 17.08 6.89C17.0692 6.89 17.0509 6.88 17.04 6.88C17.0291 6.88 17.021 6.88 17.01 6.88ZM18.29 4.12L15.58 4.12L15.58 2.06C15.58 2.02621 15.58 1.99374 15.58 1.96C15.58 1.92626 15.57 1.89362 15.57 1.86C15.57 1.82638 15.56 1.79341 15.56 1.76C15.56 1.72659 15.54 1.69312 15.54 1.66C15.54 1.62688 15.52 1.59276 15.52 1.56C15.52 1.52724 15.49 1.49231 15.49 1.46C15.49 1.42769 15.4712 1.40179 15.46 1.37C15.4488 1.33821 15.4427 1.30119 15.43 1.27C15.4173 1.23881 15.4042 1.21052 15.39 1.18C15.3758 1.14949 15.3557 1.11977 15.34 1.09C15.3244 1.06023 15.3071 1.02895 15.29 1C15.2729 0.97105 15.2584 0.948061 15.24 0.92C15.2216 0.891939 15.1998 0.857107 15.18 0.83C15.1602 0.802893 15.1411 0.776086 15.12 0.75C15.0989 0.723916 15.0823 0.705003 15.06 0.68C15.0377 0.654999 15.0135 0.623858 14.99 0.6C14.9666 0.576142 14.9446 0.55266 14.92 0.53C14.8954 0.50734 14.8656 0.491405 14.84 0.47C14.8144 0.448595 14.7866 0.430096 14.76 0.41C14.7334 0.389901 14.7076 0.368743 14.68 0.35C14.6525 0.331257 14.6284 0.307344 14.6 0.29C14.5716 0.272656 14.5392 0.255903 14.51 0.24C14.4808 0.224097 14.4499 0.214422 14.42 0.2C14.3901 0.185577 14.3606 0.172909 14.33 0.16C14.2994 0.147091 14.2712 0.131364 14.24 0.12C14.2088 0.108636 14.1717 0.09 14.14 0.09C14.1083 0.09 14.0821 0.06 14.05 0.06C14.0179 0.06 13.9825 0.04 13.95 0.04C13.9175 0.04 13.8828 0.02 13.85 0.02C13.8172 0.02 13.783 0.01 13.75 0.01C13.717 0.01 13.6831 0 13.65 0C13.6169 0 13.5931 0 13.56 0L5.44 0C5.4069 0 5.37308 0 5.34 0C5.30694 0 5.28298 0.01 5.25 0.01C5.21706 0.01 5.18277 0.02 5.15 0.02C5.11725 0.02 5.08249 0.04 5.05 0.04C5.01753 0.04 4.98214 0.06 4.95 0.06C4.91786 0.06 4.89169 0.09 4.86 0.09C4.82831 0.09 4.79121 0.108636 4.76 0.12C4.72883 0.131364 4.70062 0.147091 4.67 0.16C4.6394 0.172909 4.60995 0.185577 4.58 0.2C4.55005 0.214423 4.51923 0.224097 4.49 0.24C4.46079 0.255903 4.42843 0.272656 4.4 0.29C4.37159 0.307342 4.34757 0.331257 4.32 0.35C4.29246 0.368743 4.26662 0.389901 4.24 0.41C4.21338 0.430099 4.18563 0.448595 4.16 0.47C4.13437 0.491405 4.10458 0.50734 4.08 0.53C4.05545 0.552657 4.03346 0.576139 4.01 0.6C3.98656 0.623858 3.96228 0.654999 3.94 0.68C3.91774 0.705001 3.90106 0.723914 3.88 0.75C3.85894 0.776084 3.83977 0.802893 3.82 0.83C3.80025 0.857107 3.77845 0.891937 3.76 0.92C3.74155 0.948061 3.72708 0.97105 3.71 1C3.69294 1.02895 3.67567 1.06023 3.66 1.09C3.64433 1.11977 3.62424 1.14949 3.61 1.18C3.59581 1.21051 3.58274 1.23881 3.57 1.27C3.55728 1.30119 3.55125 1.33821 3.54 1.37C3.5288 1.40179 3.51 1.42769 3.51 1.46C3.51 1.49231 3.48 1.52724 3.48 1.56C3.48 1.59276 3.46 1.62688 3.46 1.66C3.46 1.69312 3.44 1.72659 3.44 1.76C3.44 1.79341 3.43 1.82638 3.43 1.86C3.43 1.89362 3.42 1.92626 3.42 1.96C3.42 1.99374 3.42 2.02621 3.42 2.06L3.42 4.12L0.71 4.12C0.698573 4.12 0.691443 4.12 0.68 4.12C0.668557 4.12 0.651433 4.12 0.64 4.12C0.628567 4.12 0.621391 4.13 0.61 4.13C0.598609 4.13 0.591321 4.13 0.58 4.13C0.568681 4.13 0.551222 4.14 0.54 4.14C0.52878 4.14 0.521092 4.15 0.51 4.15C0.498908 4.15 0.490936 4.15 0.48 4.15C0.469066 4.15 0.450751 4.17 0.44 4.17C0.429252 4.17 0.420536 4.18 0.41 4.18C0.399464 4.18 0.390296 4.19 0.38 4.19C0.369706 4.19 0.360028 4.21 0.35 4.21C0.339974 4.21 0.32 4.23 0.32 4.23L0.29 4.25L0.26 4.27L0.24 4.29L0.21 4.31L0.19 4.34L0.16 4.36L0.14 4.39L0.12 4.42L0.1 4.45C0.1 4.45 0.09 4.46979 0.09 4.48C0.09 4.49021 0.07 4.49954 0.07 4.51C0.07 4.52048 0.06 4.52928 0.06 4.54C0.06 4.55072 0.04 4.55906 0.04 4.57C0.04 4.58094 0.03 4.59887 0.03 4.61C0.03 4.62115 0.02 4.6287 0.02 4.64C0.02 4.6513 0.01 4.65857 0.01 4.67C0.01 4.68143 0.01 4.69846 0.01 4.71C0.01 4.72154 0 4.72838 0 4.74C0 4.75162 0 4.76833 0 4.78C0 4.79167 0 4.79833 0 4.81C0 4.82167 0 4.83833 0 4.85C0 4.86167 0 4.86838 0 4.88C0 4.89162 0.01 4.90846 0.01 4.92C0.01 4.93154 0.01 4.93857 0.01 4.95C0.01 4.96143 0.02 4.9787 0.02 4.99C0.02 5.0013 0.03 5.00885 0.03 5.02C0.03 5.03113 0.04 5.03906 0.04 5.05C0.04 5.06094 0.06 5.06928 0.06 5.08C0.06 5.09072 0.07 5.10952 0.07 5.12C0.07 5.13046 0.09 5.13979 0.09 5.15C0.09 5.1602 0.1 5.18 0.1 5.18L0.12 5.21L0.14 5.24L0.16 5.26L0.19 5.29L0.21 5.31L0.24 5.34L0.26 5.36L0.29 5.38L0.32 5.4C0.32 5.4 0.339974 5.42 0.35 5.42C0.360028 5.42 0.369704 5.43 0.38 5.43C0.390294 5.43 0.399464 5.45 0.41 5.45C0.420536 5.45 0.429252 5.46 0.44 5.46C0.450751 5.46 0.469066 5.47 0.48 5.47C0.490936 5.47 0.498908 5.48 0.51 5.48C0.521092 5.48 0.52878 5.49 0.54 5.49C0.551222 5.49 0.568681 5.49 0.58 5.49C0.591321 5.49 0.598609 5.5 0.61 5.5C0.621391 5.5 0.628567 5.5 0.64 5.5C0.651433 5.5 0.668557 5.5 0.68 5.5C0.691443 5.5 0.698573 5.5 0.71 5.5L18.29 5.5C18.3014 5.5 18.3086 5.5 18.32 5.5C18.3315 5.5 18.3486 5.5 18.36 5.5C18.3714 5.5 18.3786 5.5 18.39 5.5C18.4014 5.5 18.4087 5.49 18.42 5.49C18.4313 5.49 18.4488 5.49 18.46 5.49C18.4712 5.49 18.4789 5.48 18.49 5.48C18.5011 5.48 18.5091 5.47 18.52 5.47C18.531 5.47 18.5493 5.46 18.56 5.46C18.5707 5.46 18.5795 5.45 18.59 5.45C18.6005 5.45 18.6097 5.43 18.62 5.43C18.6303 5.43 18.64 5.42 18.65 5.42C18.66 5.42 18.68 5.4 18.68 5.4L18.71 5.38L18.74 5.36L18.76 5.34L18.79 5.31L18.81 5.29L18.84 5.26L18.86 5.24L18.88 5.21L18.9 5.18C18.9 5.18 18.91 5.1602 18.91 5.15C18.91 5.13979 18.93 5.13046 18.93 5.12C18.93 5.10952 18.94 5.09072 18.94 5.08C18.94 5.06928 18.96 5.06094 18.96 5.05C18.96 5.03906 18.97 5.03113 18.97 5.02C18.97 5.00885 18.98 5.0013 18.98 4.99C18.98 4.9787 18.99 4.96143 18.99 4.95C18.99 4.93857 18.99 4.93154 18.99 4.92C18.99 4.90846 19 4.89162 19 4.88C19 4.86838 19 4.86167 19 4.85C19 4.83833 19 4.82167 19 4.81C19 4.79833 19 4.79167 19 4.78C19 4.76833 19 4.75162 19 4.74C19 4.72838 18.99 4.72154 18.99 4.71C18.99 4.69846 18.99 4.68143 18.99 4.67C18.99 4.65857 18.98 4.6513 18.98 4.64C18.98 4.6287 18.97 4.62115 18.97 4.61C18.97 4.59887 18.96 4.58094 18.96 4.57C18.96 4.55906 18.94 4.55072 18.94 4.54C18.94 4.52928 18.93 4.52048 18.93 4.51C18.93 4.49954 18.91 4.49021 18.91 4.48C18.91 4.46979 18.9 4.45 18.9 4.45L18.88 4.42L18.86 4.39L18.84 4.36L18.81 4.34L18.79 4.31L18.76 4.29L18.74 4.27L18.71 4.25L18.68 4.23C18.68 4.23 18.66 4.21 18.65 4.21C18.64 4.21 18.6303 4.19 18.62 4.19C18.6097 4.19 18.6005 4.18 18.59 4.18C18.5795 4.18 18.5707 4.17 18.56 4.17C18.5493 4.17 18.531 4.15 18.52 4.15C18.5091 4.15 18.5011 4.15 18.49 4.15C18.4789 4.15 18.4712 4.14 18.46 4.14C18.4488 4.14 18.4313 4.13 18.42 4.13C18.4087 4.13 18.4014 4.13 18.39 4.13C18.3786 4.13 18.3714 4.12 18.36 4.12C18.3486 4.12 18.3315 4.12 18.32 4.12C18.3086 4.12 18.3014 4.12 18.29 4.12ZM6.12 4.12L4.77 4.12L4.77 2.06C4.77 1.6805 5.06694 1.37 5.44 1.37L6.12 1.37L6.12 4.12ZM11.53 4.12L7.47 4.12L7.47 1.37L11.53 1.37L11.53 4.12ZM14.23 4.12L12.88 4.12L12.88 1.37L13.56 1.37C13.9331 1.37 14.23 1.6805 14.23 2.06L14.23 4.12ZM6.12 19.25C6.1351 19.25 6.15383 19.25 6.17 19.25C6.18104 19.25 6.18905 19.24 6.2 19.24C6.21095 19.24 6.21913 19.24 6.23 19.24C6.24089 19.24 6.25922 19.23 6.27 19.23C6.28078 19.23 6.28937 19.23 6.3 19.23C6.31066 19.23 6.31951 19.22 6.33 19.22C6.34051 19.22 6.3497 19.2 6.36 19.2C6.37032 19.2 6.37989 19.19 6.39 19.19C6.40011 19.19 6.42 19.18 6.42 19.18L6.45 19.16L6.48 19.14L6.51 19.13L6.53 19.11L6.56 19.08L6.58 19.06L6.61 19.04L6.63 19.01L6.65 18.99L6.67 18.96L6.69 18.93L6.71 18.9C6.71 18.9 6.72 18.88 6.72 18.87C6.72 18.86 6.74 18.8503 6.74 18.84C6.74 18.8297 6.75 18.8205 6.75 18.81C6.75 18.7995 6.76 18.7907 6.76 18.78C6.76 18.7693 6.77 18.7608 6.77 18.75C6.77 18.7392 6.78 18.721 6.78 18.71C6.78 18.699 6.78 18.6911 6.78 18.68C6.78 18.6689 6.79 18.6612 6.79 18.65C6.79 18.6388 6.79 18.6212 6.79 18.61C6.79 18.5988 6.79 18.5913 6.79 18.58C6.79 18.5687 6.79 18.5613 6.79 18.55C6.79 18.5387 6.79 18.5212 6.79 18.51L6.12 8.89C6.12 8.8787 6.12 8.86128 6.12 8.85C6.12 8.83874 6.11 8.83119 6.11 8.82C6.11 8.80881 6.11 8.80109 6.11 8.79C6.11 8.77891 6.1 8.76096 6.1 8.75C6.1 8.73904 6.09 8.73081 6.09 8.72C6.09 8.70919 6.08 8.70061 6.08 8.69C6.08 8.67939 6.07 8.67042 6.07 8.66C6.07 8.6496 6.05 8.64016 6.05 8.63C6.05 8.61984 6.04 8.6 6.04 8.6L6.02 8.57L6 8.54L5.98 8.51L5.96 8.49L5.94 8.46L5.92 8.44L5.89 8.41L5.86 8.39L5.84 8.37L5.81 8.35L5.78 8.34L5.75 8.32C5.75 8.32 5.73019 8.31 5.72 8.31C5.70983 8.31 5.7004 8.29 5.69 8.29C5.67962 8.29 5.67057 8.28 5.66 8.28C5.64943 8.28 5.64074 8.27 5.63 8.27C5.61928 8.27 5.61087 8.26 5.6 8.26C5.58915 8.26 5.57097 8.26 5.56 8.26C5.54905 8.26 5.54103 8.25 5.53 8.25C5.51897 8.25 5.51108 8.25 5.5 8.25C5.48892 8.25 5.47112 8.25 5.46 8.25C5.44892 8.25 5.4411 8.25 5.43 8.25C5.41892 8.25 5.41108 8.25 5.4 8.25C5.38901 8.25 5.37095 8.26 5.36 8.26C5.34905 8.26 5.34087 8.26 5.33 8.26C5.31913 8.26 5.31078 8.27 5.3 8.27C5.28924 8.27 5.28066 8.27 5.27 8.27C5.25937 8.27 5.24051 8.28 5.23 8.28C5.21951 8.28 5.21032 8.3 5.2 8.3C5.1897 8.3 5.18011 8.31 5.17 8.31C5.15991 8.31 5.14 8.32 5.14 8.32L5.11 8.34L5.09 8.36L5.06 8.37L5.03 8.39L5.01 8.42L4.98 8.44L4.96 8.46L4.94 8.49L4.91 8.51L4.89 8.54L4.88 8.57L4.86 8.6C4.86 8.6 4.84 8.61997 4.84 8.63C4.84 8.64003 4.83 8.64971 4.83 8.66C4.83 8.67027 4.82 8.67952 4.82 8.69C4.82 8.70051 4.8 8.70932 4.8 8.72C4.8 8.73068 4.79 8.73915 4.79 8.75C4.79 8.76085 4.79 8.77902 4.79 8.79C4.79 8.80098 4.78 8.80891 4.78 8.82C4.78 8.83109 4.78 8.83883 4.78 8.85C4.78 8.86117 4.77 8.87876 4.77 8.89C4.77 8.90121 4.77 8.90874 4.77 8.92C4.77 8.93126 4.77 8.93874 4.77 8.95C4.77 8.96126 4.77 8.97876 4.77 8.99L5.45 18.61C5.47588 18.9697 5.76526 19.25 6.12 19.25ZM12.88 19.25C13.2337 19.25 13.5241 18.9697 13.55 18.61L14.23 8.99C14.23 8.97876 14.23 8.96126 14.23 8.95C14.23 8.93872 14.23 8.93126 14.23 8.92C14.23 8.90872 14.23 8.90124 14.23 8.89C14.23 8.87876 14.23 8.86119 14.23 8.85C14.23 8.83883 14.22 8.83111 14.22 8.82C14.22 8.80889 14.21 8.801 14.21 8.79C14.21 8.77902 14.21 8.76085 14.21 8.75C14.21 8.73915 14.2 8.7307 14.2 8.72C14.2 8.70932 14.18 8.70051 14.18 8.69C14.18 8.67949 14.17 8.67029 14.17 8.66C14.17 8.64971 14.16 8.64005 14.16 8.63C14.16 8.61995 14.14 8.6 14.14 8.6L14.12 8.57L14.11 8.54L14.09 8.51L14.07 8.49L14.04 8.46L14.02 8.44L14 8.42L13.97 8.39L13.94 8.37L13.92 8.36L13.89 8.34L13.86 8.32C13.86 8.32 13.8401 8.31 13.83 8.31C13.8199 8.31 13.8103 8.3 13.8 8.3C13.7897 8.3 13.7805 8.28 13.77 8.28C13.7595 8.28 13.7407 8.27 13.73 8.27C13.7193 8.27 13.7108 8.27 13.7 8.27C13.6892 8.27 13.6809 8.26 13.67 8.26C13.6591 8.26 13.651 8.26 13.64 8.26C13.629 8.26 13.611 8.25 13.6 8.25C13.589 8.25 13.5811 8.25 13.57 8.25C13.5589 8.25 13.5511 8.25 13.54 8.25C13.5289 8.25 13.5111 8.25 13.5 8.25C13.4889 8.25 13.481 8.25 13.47 8.25C13.459 8.25 13.451 8.26 13.44 8.26C13.4291 8.26 13.4108 8.26 13.4 8.26C13.3892 8.26 13.3807 8.27 13.37 8.27C13.3593 8.27 13.3506 8.28 13.34 8.28C13.3294 8.28 13.3204 8.29 13.31 8.29C13.2996 8.29 13.2902 8.31 13.28 8.31C13.2698 8.31 13.25 8.32 13.25 8.32L13.22 8.34L13.19 8.35L13.16 8.37L13.14 8.39L13.11 8.41L13.09 8.44L13.06 8.46L13.04 8.49L13.02 8.51L13 8.54L12.98 8.57L12.96 8.6C12.96 8.6 12.95 8.61986 12.95 8.63C12.95 8.64012 12.93 8.64962 12.93 8.66C12.93 8.67038 12.92 8.67941 12.92 8.69C12.92 8.70059 12.91 8.70924 12.91 8.72C12.91 8.73076 12.9 8.73906 12.9 8.75C12.9 8.76094 12.89 8.77894 12.89 8.79C12.89 8.80106 12.89 8.80883 12.89 8.82C12.89 8.83115 12.88 8.83876 12.88 8.85C12.88 8.86124 12.88 8.87872 12.88 8.89L12.2 18.51C12.2 18.5218 12.2 18.5382 12.2 18.55C12.2 18.5618 12.2 18.5682 12.2 18.58C12.2 18.5918 12.2 18.6082 12.2 18.62C12.2 18.6318 12.21 18.6383 12.21 18.65C12.21 18.6617 12.21 18.6784 12.21 18.69C12.21 18.7016 12.22 18.7085 12.22 18.72C12.22 18.7315 12.23 18.7487 12.23 18.76C12.23 18.7713 12.24 18.7789 12.24 18.79C12.24 18.8011 12.25 18.8091 12.25 18.82C12.25 18.8309 12.27 18.8493 12.27 18.86C12.27 18.8707 12.28 18.8796 12.28 18.89C12.28 18.9004 12.3 18.9099 12.3 18.92C12.3 18.9301 12.32 18.95 12.32 18.95L12.34 18.98L12.36 19.01L12.38 19.03L12.41 19.06L12.43 19.08L12.46 19.1L12.49 19.13L12.52 19.14C12.52 19.14 12.5399 19.16 12.55 19.16C12.5601 19.16 12.5696 19.18 12.58 19.18C12.5904 19.18 12.5994 19.19 12.61 19.19C12.6206 19.19 12.6292 19.21 12.64 19.21C12.6508 19.21 12.659 19.22 12.67 19.22C12.681 19.22 12.6988 19.23 12.71 19.23C12.7212 19.23 12.7287 19.24 12.74 19.24C12.7513 19.24 12.7586 19.24 12.77 19.24C12.7815 19.24 12.7985 19.25 12.81 19.25C12.8215 19.25 12.8285 19.25 12.84 19.25C12.8515 19.25 12.8684 19.25 12.88 19.25ZM10.17 18.56L10.17 8.94C10.17 8.92872 10.17 8.91128 10.17 8.9C10.17 8.88874 10.17 8.88124 10.17 8.87C10.17 8.85876 10.17 8.85115 10.17 8.84C10.17 8.82885 10.16 8.81106 10.16 8.8C10.16 8.78894 10.15 8.78094 10.15 8.77C10.15 8.75906 10.15 8.75078 10.15 8.74C10.15 8.72919 10.13 8.72061 10.13 8.71C10.13 8.69937 10.12 8.68042 10.12 8.67C10.12 8.65958 10.11 8.6502 10.11 8.64C10.11 8.62982 10.09 8.61 10.09 8.61L10.08 8.58L10.06 8.55L10.04 8.53L10.02 8.5L10 8.47L9.98 8.45L9.95 8.43L9.93 8.4L9.9 8.38L9.87 8.36L9.85 8.35L9.82 8.33C9.82 8.33 9.8 8.31 9.79 8.31C9.79 8.31 9.77024 8.3 9.76 8.3C9.74981 8.3 9.74042 8.29 9.73 8.29C9.7196 8.29 9.70059 8.28 9.69 8.28C9.67943 8.28 9.67074 8.27 9.66 8.27C9.64928 8.27 9.64085 8.26 9.63 8.26C9.61915 8.26 9.61095 8.26 9.6 8.26C9.58909 8.26 9.58101 8.25 9.57 8.25C9.55901 8.25 9.54103 8.25 9.53 8.25C9.51896 8.25 9.51106 8.25 9.5 8.25C9.48894 8.25 9.48104 8.25 9.47 8.25C9.45897 8.25 9.44099 8.25 9.43 8.25C9.41901 8.25 9.41095 8.26 9.4 8.26C9.38907 8.26 9.38085 8.26 9.37 8.26C9.35918 8.26 9.34074 8.27 9.33 8.27C9.31928 8.27 9.31059 8.28 9.3 8.28C9.28943 8.28 9.28042 8.29 9.27 8.29C9.2596 8.29 9.25023 8.3 9.24 8.3C9.22981 8.3 9.22 8.31 9.21 8.31L9.18 8.33L9.15 8.35L9.12 8.36L9.1 8.38L9.07 8.4L9.05 8.43L9.02 8.45L9 8.47L8.98 8.5L8.96 8.53L8.94 8.55L8.92 8.58L8.9 8.61C8.9 8.61 8.89 8.62982 8.89 8.64C8.89 8.6502 8.87 8.65958 8.87 8.67C8.87 8.68042 8.86 8.69937 8.86 8.71C8.86 8.72061 8.85 8.72919 8.85 8.74C8.85 8.75078 8.84 8.75906 8.84 8.77C8.84 8.78094 8.84 8.78894 8.84 8.8C8.84 8.81106 8.83 8.82885 8.83 8.84C8.83 8.85115 8.83 8.85876 8.83 8.87C8.83 8.88124 8.82 8.88874 8.82 8.9C8.82 8.91128 8.82 8.92872 8.82 8.94L8.82 18.56C8.82 18.5713 8.82 18.5887 8.82 18.6C8.82 18.6113 8.83 18.6188 8.83 18.63C8.83 18.6412 8.83 18.6488 8.83 18.66C8.83 18.6712 8.84 18.6889 8.84 18.7C8.84 18.7111 8.84 18.7191 8.84 18.73C8.84 18.7409 8.85 18.7492 8.85 18.76C8.85 18.7708 8.86 18.7794 8.86 18.79C8.86 18.8006 8.87 18.8196 8.87 18.83C8.87 18.8404 8.89 18.8498 8.89 18.86C8.89 18.8702 8.9 18.89 8.9 18.89L8.92 18.92L8.94 18.95L8.96 18.97L8.98 19L9 19.03L9.02 19.05L9.05 19.07L9.07 19.1L9.1 19.12L9.12 19.14L9.15 19.15L9.18 19.17L9.21 19.19C9.22 19.19 9.22979 19.2 9.24 19.2C9.25021 19.2 9.2596 19.21 9.27 19.21C9.28042 19.21 9.28943 19.22 9.3 19.22C9.31059 19.22 9.31928 19.23 9.33 19.23C9.34074 19.23 9.35918 19.24 9.37 19.24C9.38085 19.24 9.38907 19.24 9.4 19.24C9.41095 19.24 9.41901 19.25 9.43 19.25C9.44099 19.25 9.45897 19.25 9.47 19.25C9.48104 19.25 9.48894 19.25 9.5 19.25C9.51106 19.25 9.51896 19.25 9.53 19.25C9.54103 19.25 9.55901 19.25 9.57 19.25C9.58101 19.25 9.58909 19.24 9.6 19.24C9.61095 19.24 9.61915 19.24 9.63 19.24C9.64085 19.24 9.64928 19.23 9.66 19.23C9.67074 19.23 9.67943 19.22 9.69 19.22C9.70059 19.22 9.7196 19.21 9.73 19.21C9.74042 19.21 9.74981 19.2 9.76 19.2C9.77024 19.2 9.79 19.19 9.79 19.19C9.8 19.19 9.82 19.17 9.82 19.17L9.85 19.15L9.87 19.14L9.9 19.12L9.93 19.1L9.95 19.07L9.98 19.05L10 19.03L10.02 19L10.04 18.97L10.06 18.95L10.08 18.92L10.09 18.89C10.09 18.89 10.11 18.8702 10.11 18.86C10.11 18.8498 10.12 18.8404 10.12 18.83C10.12 18.8196 10.13 18.8006 10.13 18.79C10.13 18.7794 10.15 18.7708 10.15 18.76C10.15 18.7492 10.15 18.7409 10.15 18.73C10.15 18.7191 10.16 18.7111 10.16 18.7C10.16 18.6889 10.17 18.6712 10.17 18.66C10.17 18.6488 10.17 18.6412 10.17 18.63C10.17 18.6188 10.17 18.6113 10.17 18.6C10.17 18.5887 10.17 18.5713 10.17 18.56Z"   fill="#161B08" fill-opacity="0.555">
    </path>
</svg>
